<mxfile host="app.diagrams.net" agent="Mozilla/5.0 (Windows NT 10.0; Win64; x64) AppleWebKit/537.36 (KHTML, like Gecko) Chrome/126.0.0.0 Safari/537.36 OPR/112.0.0.0" version="24.7.12">
  <diagram name="Страница — 1" id="vxNDnRggzqVwpREo4L-m">
    <mxGraphModel dx="3067" dy="1660" grid="1" gridSize="10" guides="1" tooltips="1" connect="1" arrows="1" fold="1" page="1" pageScale="1" pageWidth="827" pageHeight="1169" math="0" shadow="0">
      <root>
        <mxCell id="0" />
        <mxCell id="1" parent="0" />
        <mxCell id="Ciy70qXRzQ-Ax-wviSUd-1" value="Начало" style="strokeWidth=2;html=1;shape=mxgraph.flowchart.start_1;whiteSpace=wrap;" vertex="1" parent="1">
          <mxGeometry x="364" y="20" width="100" height="60" as="geometry" />
        </mxCell>
        <mxCell id="Ciy70qXRzQ-Ax-wviSUd-2" value="Загрузка стартовой&lt;br&gt;страницы" style="rounded=0;whiteSpace=wrap;html=1;" vertex="1" parent="1">
          <mxGeometry x="354" y="110" width="120" height="60" as="geometry" />
        </mxCell>
        <mxCell id="Ciy70qXRzQ-Ax-wviSUd-3" value="" style="endArrow=none;html=1;rounded=0;entryX=0.5;entryY=1;entryDx=0;entryDy=0;entryPerimeter=0;exitX=0.5;exitY=0;exitDx=0;exitDy=0;" edge="1" parent="1" source="Ciy70qXRzQ-Ax-wviSUd-2" target="Ciy70qXRzQ-Ax-wviSUd-1">
          <mxGeometry width="50" height="50" relative="1" as="geometry">
            <mxPoint x="600" y="150" as="sourcePoint" />
            <mxPoint x="600" y="80" as="targetPoint" />
          </mxGeometry>
        </mxCell>
        <mxCell id="Ciy70qXRzQ-Ax-wviSUd-4" value="Введённые данные совпадают с данными из бд?" style="strokeWidth=2;html=1;shape=mxgraph.flowchart.decision;whiteSpace=wrap;" vertex="1" parent="1">
          <mxGeometry x="337" y="190" width="154" height="150" as="geometry" />
        </mxCell>
        <mxCell id="Ciy70qXRzQ-Ax-wviSUd-5" value="" style="endArrow=none;html=1;rounded=0;entryX=0.5;entryY=1;entryDx=0;entryDy=0;exitX=0.5;exitY=0;exitDx=0;exitDy=0;exitPerimeter=0;" edge="1" parent="1" source="Ciy70qXRzQ-Ax-wviSUd-4" target="Ciy70qXRzQ-Ax-wviSUd-2">
          <mxGeometry width="50" height="50" relative="1" as="geometry">
            <mxPoint x="400" y="380" as="sourcePoint" />
            <mxPoint x="450" y="330" as="targetPoint" />
          </mxGeometry>
        </mxCell>
        <mxCell id="Ciy70qXRzQ-Ax-wviSUd-6" value="" style="endArrow=classicThin;html=1;rounded=0;exitX=1;exitY=0.5;exitDx=0;exitDy=0;exitPerimeter=0;strokeWidth=1;edgeStyle=orthogonalEdgeStyle;entryX=1;entryY=0.5;entryDx=0;entryDy=0;fontSize=16;startArrow=none;startFill=0;endFill=1;" edge="1" parent="1" source="Ciy70qXRzQ-Ax-wviSUd-4" target="Ciy70qXRzQ-Ax-wviSUd-2">
          <mxGeometry width="50" height="50" relative="1" as="geometry">
            <mxPoint x="560" y="270" as="sourcePoint" />
            <mxPoint x="640" y="265" as="targetPoint" />
            <Array as="points">
              <mxPoint x="650" y="265" />
              <mxPoint x="650" y="140" />
            </Array>
          </mxGeometry>
        </mxCell>
        <mxCell id="Ciy70qXRzQ-Ax-wviSUd-7" value="Нет" style="edgeLabel;html=1;align=center;verticalAlign=middle;resizable=0;points=[];fontSize=16;" vertex="1" connectable="0" parent="Ciy70qXRzQ-Ax-wviSUd-6">
          <mxGeometry x="-0.687" y="1" relative="1" as="geometry">
            <mxPoint as="offset" />
          </mxGeometry>
        </mxCell>
        <mxCell id="Ciy70qXRzQ-Ax-wviSUd-8" value="Загрузка страницы материалов" style="rounded=0;whiteSpace=wrap;html=1;" vertex="1" parent="1">
          <mxGeometry x="354" y="410" width="120" height="60" as="geometry" />
        </mxCell>
        <mxCell id="Ciy70qXRzQ-Ax-wviSUd-9" value="" style="endArrow=classic;html=1;rounded=0;exitX=0.5;exitY=1;exitDx=0;exitDy=0;exitPerimeter=0;entryX=0.5;entryY=0;entryDx=0;entryDy=0;endFill=1;" edge="1" parent="1" source="Ciy70qXRzQ-Ax-wviSUd-4" target="Ciy70qXRzQ-Ax-wviSUd-8">
          <mxGeometry width="50" height="50" relative="1" as="geometry">
            <mxPoint x="400" y="380" as="sourcePoint" />
            <mxPoint x="450" y="330" as="targetPoint" />
          </mxGeometry>
        </mxCell>
        <mxCell id="Ciy70qXRzQ-Ax-wviSUd-10" value="Да" style="edgeLabel;html=1;align=center;verticalAlign=middle;resizable=0;points=[];fontSize=16;" vertex="1" connectable="0" parent="Ciy70qXRzQ-Ax-wviSUd-9">
          <mxGeometry x="-0.2" relative="1" as="geometry">
            <mxPoint as="offset" />
          </mxGeometry>
        </mxCell>
        <mxCell id="Ciy70qXRzQ-Ax-wviSUd-11" value="Страница материалов" style="shape=display;whiteSpace=wrap;html=1;" vertex="1" parent="1">
          <mxGeometry x="344" y="525" width="136" height="60" as="geometry" />
        </mxCell>
        <mxCell id="Ciy70qXRzQ-Ax-wviSUd-12" value="" style="endArrow=none;html=1;rounded=0;exitX=0.5;exitY=1;exitDx=0;exitDy=0;entryX=0;entryY=0;entryDx=70;entryDy=0;entryPerimeter=0;" edge="1" parent="1" target="Ciy70qXRzQ-Ax-wviSUd-11">
          <mxGeometry width="50" height="50" relative="1" as="geometry">
            <mxPoint x="414" y="470" as="sourcePoint" />
            <mxPoint x="416" y="525" as="targetPoint" />
          </mxGeometry>
        </mxCell>
        <mxCell id="Ciy70qXRzQ-Ax-wviSUd-13" value="Нажать на кнопку&lt;br&gt;&amp;nbsp;списка&lt;br&gt;поставщиков" style="verticalLabelPosition=middle;verticalAlign=middle;html=1;shape=trapezoid;perimeter=trapezoidPerimeter;whiteSpace=wrap;size=0.23;arcSize=10;flipV=1;labelPosition=center;align=center;" vertex="1" parent="1">
          <mxGeometry x="145" y="518" width="150" height="75" as="geometry" />
        </mxCell>
        <mxCell id="Ciy70qXRzQ-Ax-wviSUd-15" value="" style="endArrow=none;html=1;rounded=0;entryX=0;entryY=0.5;entryDx=0;entryDy=0;entryPerimeter=0;exitX=1;exitY=0.5;exitDx=0;exitDy=0;" edge="1" parent="1" source="Ciy70qXRzQ-Ax-wviSUd-13" target="Ciy70qXRzQ-Ax-wviSUd-11">
          <mxGeometry width="50" height="50" relative="1" as="geometry">
            <mxPoint x="240" y="770" as="sourcePoint" />
            <mxPoint x="290" y="720" as="targetPoint" />
          </mxGeometry>
        </mxCell>
        <mxCell id="Ciy70qXRzQ-Ax-wviSUd-17" value="Страница списка&lt;br&gt;поставщиков" style="shape=display;whiteSpace=wrap;html=1;" vertex="1" parent="1">
          <mxGeometry x="153" y="760" width="125" height="54" as="geometry" />
        </mxCell>
        <mxCell id="Ciy70qXRzQ-Ax-wviSUd-18" value="" style="endArrow=none;html=1;rounded=0;entryX=0.5;entryY=1;entryDx=0;entryDy=0;exitX=0.537;exitY=0.005;exitDx=0;exitDy=0;exitPerimeter=0;" edge="1" parent="1" source="Ciy70qXRzQ-Ax-wviSUd-17" target="Ciy70qXRzQ-Ax-wviSUd-13">
          <mxGeometry width="50" height="50" relative="1" as="geometry">
            <mxPoint x="220" y="750" as="sourcePoint" />
            <mxPoint x="135" y="620" as="targetPoint" />
          </mxGeometry>
        </mxCell>
        <mxCell id="Ciy70qXRzQ-Ax-wviSUd-20" value="Данные&lt;br&gt;поставщиков" style="strokeWidth=2;html=1;shape=mxgraph.flowchart.direct_data;whiteSpace=wrap;" vertex="1" parent="1">
          <mxGeometry x="20" y="650" width="140" height="60" as="geometry" />
        </mxCell>
        <mxCell id="Ciy70qXRzQ-Ax-wviSUd-22" value="" style="endArrow=none;html=1;rounded=0;entryX=1;entryY=0.5;entryDx=0;entryDy=0;entryPerimeter=0;" edge="1" parent="1" target="Ciy70qXRzQ-Ax-wviSUd-20">
          <mxGeometry width="50" height="50" relative="1" as="geometry">
            <mxPoint x="220" y="680" as="sourcePoint" />
            <mxPoint x="266" y="680" as="targetPoint" />
          </mxGeometry>
        </mxCell>
        <mxCell id="Ciy70qXRzQ-Ax-wviSUd-25" value="&lt;br&gt;Редактирование списка поставщиков" style="html=1;strokeWidth=2;shape=manualInput;whiteSpace=wrap;rounded=1;size=26;arcSize=11;" vertex="1" parent="1">
          <mxGeometry x="170" y="860" width="100" height="80" as="geometry" />
        </mxCell>
        <mxCell id="Ciy70qXRzQ-Ax-wviSUd-28" value="" style="endArrow=none;html=1;rounded=0;entryX=0;entryY=0;entryDx=64.625;entryDy=54;entryPerimeter=0;exitX=0.525;exitY=0.162;exitDx=0;exitDy=0;exitPerimeter=0;" edge="1" parent="1" source="Ciy70qXRzQ-Ax-wviSUd-25">
          <mxGeometry width="50" height="50" relative="1" as="geometry">
            <mxPoint x="223" y="870" as="sourcePoint" />
            <mxPoint x="222.625" y="814" as="targetPoint" />
          </mxGeometry>
        </mxCell>
        <mxCell id="Ciy70qXRzQ-Ax-wviSUd-31" value="Данные материалов" style="strokeWidth=2;html=1;shape=mxgraph.flowchart.direct_data;whiteSpace=wrap;" vertex="1" parent="1">
          <mxGeometry x="560" y="410" width="110" height="60" as="geometry" />
        </mxCell>
        <mxCell id="Ciy70qXRzQ-Ax-wviSUd-32" value="" style="endArrow=none;html=1;rounded=0;entryX=0;entryY=0.5;entryDx=0;entryDy=0;entryPerimeter=0;exitX=1;exitY=0.5;exitDx=0;exitDy=0;" edge="1" parent="1" source="Ciy70qXRzQ-Ax-wviSUd-8" target="Ciy70qXRzQ-Ax-wviSUd-31">
          <mxGeometry width="50" height="50" relative="1" as="geometry">
            <mxPoint x="360" y="420" as="sourcePoint" />
            <mxPoint x="410" y="370" as="targetPoint" />
          </mxGeometry>
        </mxCell>
        <mxCell id="Ciy70qXRzQ-Ax-wviSUd-33" value="Редактирование списка материалов" style="html=1;strokeWidth=2;shape=manualInput;whiteSpace=wrap;rounded=1;size=26;arcSize=11;" vertex="1" parent="1">
          <mxGeometry x="351" y="630" width="126" height="80" as="geometry" />
        </mxCell>
        <mxCell id="Ciy70qXRzQ-Ax-wviSUd-34" value="" style="endArrow=none;html=1;rounded=0;entryX=0;entryY=0;entryDx=70;entryDy=60;entryPerimeter=0;exitX=0.501;exitY=0.16;exitDx=0;exitDy=0;exitPerimeter=0;" edge="1" parent="1" source="Ciy70qXRzQ-Ax-wviSUd-33">
          <mxGeometry width="50" height="50" relative="1" as="geometry">
            <mxPoint x="414.12200000000007" y="641.76" as="sourcePoint" />
            <mxPoint x="413.87" y="585" as="targetPoint" />
          </mxGeometry>
        </mxCell>
      </root>
    </mxGraphModel>
  </diagram>
</mxfile>
